# xmcd CD database file
#
# Track frame offsets:
#	150
#	13582
#	28005
#	41714
#	56864
#	72649
#	88222
#	101276
#	115674
#	130261
#	144013
#	158269
#	171876
#	185431
#	200443
#	213801
#	228866
#	242903
#	258562
#	271911
#	287170
#	301010
#
# Disc length: 4221 seconds
#
# Revision: 0
# Processed by: cddbd v1.5.1PL0 Copyright (c) Steve Scherf et al.
# Submitted via: CDex 1.51
#
DISCID=2f107b16
DTITLE=Bessie Smith - Best Of
DYEAR=1900
DGENRE=Blues
TTITLE0=Nobody Knows You When You're Down And Out
TTITLE1=St. Louis Blues
TTITLE2=Empty Bed Blues (Part 1)
TTITLE3=Empty Bed Blues (Part 2)
TTITLE4=You've Been A Good Ole Wagon
TTITLE5=Careless Love Blues
TTITLE6=Squeeze Me
TTITLE7=I Ain't Got Nobody
TTITLE8=The Gin House Blues
TTITLE9=Sobbin' Hearted Blues
TTITLE10=Young Woman's Blues
TTITLE11=A Good Man Is Hard To Find
TTITLE12=Alexander's Ragtime Band
TTITLE13=Backwater Blues
TTITLE14=After You've Gone
TTITLE15=There'll Be A Hot Time In The Old Town Tonight
TTITLE16=Gulf Coast Blues
TTITLE17='Tain't Nobody's Biz-Ness If I Do
TTITLE18=Baby, Won't You Please Come Home?
TTITLE19=Send Me To The 'Lectric Chair
TTITLE20=The Yellow Dog Blues
TTITLE21=Gimme A Pigfoot And A Bottle Of Beer
EXTD=
EXTT0=
EXTT1=
EXTT2=
EXTT3=
EXTT4=
EXTT5=
EXTT6=
EXTT7=
EXTT8=
EXTT9=
EXTT10=
EXTT11=
EXTT12=
EXTT13=
EXTT14=
EXTT15=
EXTT16=
EXTT17=
EXTT18=
EXTT19=
EXTT20=
EXTT21=
PLAYORDER=
